<svg width="32" height="32" viewBox="0 0 32 32" xmlns="http://www.w3.org/2000/svg">
  <defs>
    <linearGradient id="faviconGradient" x1="0%" y1="0%" x2="100%" y2="100%">
      <stop offset="0%" style="stop-color:#DC143C;stop-opacity:1" />
      <stop offset="100%" style="stop-color:#B91C3C;stop-opacity:1" />
    </linearGradient>
  </defs>

  <!-- Minimalist background -->
  <circle cx="16" cy="16" r="15.5" fill="none" stroke="url(#faviconGradient)" stroke-width="1" opacity="0.15"/>

  <!-- Stylized "S" - scaled for favicon -->
  <g transform="translate(6, 6)">
    <!-- Main S curve - smaller scale -->
    <path
      d="M12 3 C12 3, 6 3, 6 8 C6 13, 12 13, 12 18 C12 18, 6 18, 6 23"
      fill="none"
      stroke="url(#faviconGradient)"
      stroke-width="2"
      stroke-linecap="round"
      stroke-linejoin="round"
    />

    <!-- Subtle structural elements -->
    <line x1="6" y1="8" x2="10" y2="8" stroke="url(#faviconGradient)" stroke-width="0.8" opacity="0.7"/>
    <line x1="8" y1="18" x2="12" y2="18" stroke="url(#faviconGradient)" stroke-width="0.8" opacity="0.7"/>

    <!-- Motion indicator dots - smaller -->
    <circle cx="14" cy="6" r="0.8" fill="url(#faviconGradient)" opacity="0.8"/>
    <circle cx="14" cy="9" r="0.6" fill="url(#faviconGradient)" opacity="0.6"/>
    <circle cx="14" cy="12" r="0.5" fill="url(#faviconGradient)" opacity="0.4"/>

    <!-- Geometric accent - smaller -->
    <polygon points="3,19 4.5,20.5 3,22 1.5,20.5" fill="url(#faviconGradient)" opacity="0.5"/>
  </g>

  <!-- Minimalist frame -->
  <rect x="0.5" y="0.5" width="31" height="31" fill="none" stroke="url(#faviconGradient)" stroke-width="0.3" opacity="0.2" rx="1"/>
</svg>
