<svg width="40" height="40" viewBox="0 0 40 40" xmlns="http://www.w3.org/2000/svg">
  <defs>
    <linearGradient id="scarGradientLight" x1="0%" y1="0%" x2="100%" y2="100%">
      <stop offset="0%" style="stop-color:#DC143C;stop-opacity:1" />
      <stop offset="100%" style="stop-color:#B91C3C;stop-opacity:1" />
    </linearGradient>
  </defs>

  <!-- Minimalist background -->
  <circle cx="20" cy="20" r="19.5" fill="none" stroke="url(#scarGradientLight)" stroke-width="1" opacity="0.12"/>

  <!-- Stylized "S" with motion hint -->
  <g transform="translate(8, 8)">
    <!-- Main S curve -->
    <path
      d="M16 4 C16 4, 8 4, 8 10 C8 16, 16 16, 16 22 C16 22, 8 22, 8 28"
      fill="none"
      stroke="url(#scarGradientLight)"
      stroke-width="2.5"
      stroke-linecap="round"
      stroke-linejoin="round"
    />

    <!-- Subtle structural elements -->
    <!-- Horizontal stability line -->
    <line x1="8" y1="10" x2="14" y2="10" stroke="url(#scarGradientLight)" stroke-width="1" opacity="0.7"/>
    <line x1="10" y1="22" x2="16" y2="22" stroke="url(#scarGradientLight)" stroke-width="1" opacity="0.7"/>

    <!-- Motion indicator dots -->
    <circle cx="18" cy="8" r="1" fill="url(#scarGradientLight)" opacity="0.8"/>
    <circle cx="18" cy="12" r="0.8" fill="url(#scarGradientLight)" opacity="0.6"/>
    <circle cx="18" cy="16" r="0.6" fill="url(#scarGradientLight)" opacity="0.4"/>

    <!-- Geometric accent -->
    <polygon points="4,24 6,26 4,28 2,26" fill="url(#scarGradientLight)" opacity="0.5"/>
  </g>

  <!-- Minimalist frame -->
  <rect x="0.5" y="0.5" width="39" height="39" fill="none" stroke="url(#scarGradientLight)" stroke-width="0.5" opacity="0.15" rx="2"/>
</svg>
